<?xml version="1.0" standalone="no"?>
<!DOCTYPE svg PUBLIC "-//W3C//DTD SVG 20010904//EN"
 "http://www.w3.org/TR/2001/REC-SVG-20010904/DTD/svg10.dtd">
<svg version="1.0" xmlns="http://www.w3.org/2000/svg"
 width="30.000000pt" height="30.000000pt" viewBox="0 0 30.000000 30.000000"
 preserveAspectRatio="xMidYMid meet">

<g transform="translate(0.000000,30.000000) scale(0.100000,-0.100000)"
fill="#000000" stroke="none">
<path d="M123 263 c-13 -3 -36 -17 -52 -33 -48 -49 -48 -111 0 -159 48 -49
110 -48 159 1 80 80 6 211 -107 191z m82 -58 c17 -18 31 -42 31 -55 0 -31 -55
-86 -86 -86 -31 0 -86 55 -86 86 0 13 14 37 31 55 40 39 70 39 110 0z"/>
</g>
</svg>
