<?xml version="1.0" standalone="no"?>
<!DOCTYPE svg PUBLIC "-//W3C//DTD SVG 20010904//EN"
 "http://www.w3.org/TR/2001/REC-SVG-20010904/DTD/svg10.dtd">
<svg version="1.0" xmlns="http://www.w3.org/2000/svg"
 width="64.000000pt" height="64.000000pt" viewBox="0 0 64.000000 64.000000"
 preserveAspectRatio="xMidYMid meet">

<g transform="translate(0.000000,64.000000) scale(0.100000,-0.100000)"
fill="#000000" stroke="none">
<path d="M132 565 c-36 -39 -38 -45 -17 -45 9 0 21 11 27 25 28 62 114 31 93
-33 -3 -11 -17 -24 -30 -30 -14 -6 -25 -19 -25 -29 0 -9 -14 -31 -30 -48 l-30
-31 30 -29 c37 -35 38 -58 3 -99 -59 -70 -68 -133 -24 -177 40 -39 82 -39 122
0 44 44 35 107 -24 177 -35 41 -34 64 3 99 l30 29 -30 31 c-16 17 -30 34 -30
39 0 4 14 19 30 33 37 31 40 70 7 101 -34 32 -68 28 -105 -13z m82 -173 c15
-18 15 -20 -4 -37 -19 -17 -21 -17 -40 0 -19 17 -19 19 -4 37 10 10 20 18 24
18 4 0 14 -8 24 -18z m-2 -159 c24 -28 48 -80 48 -104 0 -31 -38 -69 -69 -69
-32 0 -71 37 -71 67 0 37 49 123 70 123 4 0 14 -8 22 -17z"/>
<path d="M158 165 c-8 -19 -8 -31 0 -50 15 -33 49 -33 64 0 15 33 -3 75 -32
75 -12 0 -25 -10 -32 -25z m47 -25 c0 -13 -6 -25 -12 -27 -16 -6 -27 21 -19
43 9 23 31 11 31 -16z"/>
<path d="M392 565 c-36 -39 -38 -45 -17 -45 9 0 21 11 27 25 6 13 19 27 30 30
64 21 95 -65 33 -93 -14 -6 -25 -19 -25 -29 0 -9 -14 -31 -30 -48 l-30 -31 30
-29 c37 -35 38 -58 3 -99 -59 -70 -68 -133 -24 -177 40 -39 82 -39 122 0 44
44 35 107 -24 177 -35 41 -34 64 3 99 l30 29 -30 31 c-16 17 -30 34 -30 39 0
4 14 19 30 33 37 31 40 70 7 101 -34 32 -68 28 -105 -13z m82 -173 c15 -18 15
-20 -4 -37 -19 -17 -21 -17 -40 0 -19 17 -19 19 -4 37 10 10 20 18 24 18 4 0
14 -8 24 -18z m-2 -159 c24 -28 48 -80 48 -104 0 -31 -38 -69 -69 -69 -32 0
-71 37 -71 67 0 37 49 123 70 123 4 0 14 -8 22 -17z"/>
<path d="M418 165 c-15 -33 3 -75 32 -75 12 0 25 10 32 25 15 33 -3 75 -32 75
-12 0 -25 -10 -32 -25z m47 -25 c0 -27 -22 -39 -31 -16 -8 22 3 49 19 43 6 -2
12 -14 12 -27z"/>
</g>
</svg>
