<?xml version="1.0" standalone="yes"?>
<svg xmlns="http://www.w3.org/2000/svg" width="50" height="50">
<path style="fill:#fdfdfd; stroke:none;" d="M0 0L0 50L50 50L50 0L0 0z"/>
<path style="fill:#a0a0a0; stroke:none;" d="M18 4L19 5L18 4z"/>
<path style="fill:#060606; stroke:none;" d="M19.5941 5.02315C16.1949 7.13953 6.11384 11.4656 4.83179 15.1088C-0.896223 31.386 18.2114 56.0714 35.6096 44.9722C41.5573 41.1779 47.7395 20.481 43.9722 14.2245C42.0501 11.0323 38.0196 10.8433 35.0895 9.07021C30.4339 6.25292 25.5797 1.2965 19.5941 5.02315z"/>
<path style="fill:#2f2f2f; stroke:none;" d="M30 4L32 6L30 4z"/>
<path style="fill:#a0a0a0; stroke:none;" d="M31 4L32 5L31 4z"/>
<path style="fill:#2f2f2f; stroke:none;" d="M18 5L19 6L18 5z"/>
<path style="fill:#606060; stroke:none;" d="M17 6L18 7L17 6M19 6L20 7L19 6z"/>
<path style="fill:#fdfdfd; stroke:none;" d="M20.483 7.02778C12.3039 12.273 22.7919 21.6266 29.7716 16.7677C37.53 11.3667 27.0038 2.84606 20.483 7.02778z"/>
<path style="fill:#606060; stroke:none;" d="M30 6L31 7L30 6z"/>
<path style="fill:#a0a0a0; stroke:none;" d="M32 6L33 7L32 6z"/>
<path style="fill:#2f2f2f; stroke:none;" d="M17 7L18 8L17 7z"/>
<path style="fill:#a0a0a0; stroke:none;" d="M19 7L20 8L19 7M30 7L31 8L30 7z"/>
<path style="fill:#2f2f2f; stroke:none;" d="M32 7L33 8L32 7M16 8L17 9L16 8z"/>
<path style="fill:#606060; stroke:none;" d="M18 8L19 9L18 8z"/>
<path style="fill:#2f2f2f; stroke:none;" d="M31 8L33 10L31 8M33 8L34 9L33 8z"/>
<path style="fill:#a0a0a0; stroke:none;" d="M13 9L14 10L13 9z"/>
<path style="fill:#606060; stroke:none;" d="M14 9L15 10L14 9z"/>
<path style="fill:#2f2f2f; stroke:none;" d="M15 9L16 10L15 9z"/>
<path style="fill:#606060; stroke:none;" d="M17 9L18 10L17 9z"/>
<path style="fill:#a0a0a0; stroke:none;" d="M31 9L32 10L31 9z"/>
<path style="fill:#2f2f2f; stroke:none;" d="M34 9L35 10L34 9z"/>
<path style="fill:#a0a0a0; stroke:none;" d="M35.6667 9.33333L36.3333 9.66667L35.6667 9.33333M9 10L10 11L9 10z"/>
<path style="fill:#606060; stroke:none;" d="M10 10L11 11L10 10z"/>
<path style="fill:#2f2f2f; stroke:none;" d="M11 10L12 11L11 10z"/>
<path style="fill:#606060; stroke:none;" d="M16 10L17 11L16 10M33 10L34 11L33 10M38 10L39 11L38 10z"/>
<path style="fill:#a0a0a0; stroke:none;" d="M39 10L40 11L39 10M6 11L7 12L6 11z"/>
<path style="fill:#606060; stroke:none;" d="M7 11L8 12L7 11z"/>
<path style="fill:#2f2f2f; stroke:none;" d="M13.6667 11.3333L14.3333 11.6667L13.6667 11.3333z"/>
<path style="fill:#a0a0a0; stroke:none;" d="M16.3333 11.6667L16.6667 12.3333L16.3333 11.6667M33.3333 11.6667L33.6667 12.3333L33.3333 11.6667z"/>
<path style="fill:#2f2f2f; stroke:none;" d="M34 11L35 12L34 11M36 11L37 12L36 11M41 11L42 12L41 11z"/>
<path style="fill:#606060; stroke:none;" d="M42 11L43 12L42 11z"/>
<path style="fill:#a0a0a0; stroke:none;" d="M43 11L46 14L43 11M5 12L6 13L5 12z"/>
<path style="fill:#2f2f2f; stroke:none;" d="M9 12L10 13L9 12z"/>
<path style="fill:#606060; stroke:none;" d="M10 12L11 13L10 12z"/>
<path style="fill:#a0a0a0; stroke:none;" d="M11 12L12 13L11 12z"/>
<path style="fill:#fdfdfd; stroke:none;" d="M36 12L27 21L26 32C22.4263 28.1719 20.8044 26.0044 23 21L14 12C1.947 14.6381 7.15384 35.7666 14.6381 42.3966C18.014 45.3872 27.7374 44.5506 31.956 43.8519C42.0549 42.1792 48.4884 14.7489 36 12z"/>
<path style="fill:#606060; stroke:none;" d="M14 12L15 13L14 12z"/>
<path style="fill:#060606; stroke:none;" d="M34 12C29.5533 19.5069 22.8642 20.8394 17 14L16 14L24 21C21.4548 24.897 22.216 26.8692 24 31C28.2072 27.4619 28.4929 24.7901 26 20C30.1727 19.1557 34.6426 16.8052 34 12z"/>
<path style="fill:#606060; stroke:none;" d="M35 12L36 13L35 12z"/>
<path style="fill:#a0a0a0; stroke:none;" d="M38 12L39 13L38 12z"/>
<path style="fill:#606060; stroke:none;" d="M39 12L40 13L39 12z"/>
<path style="fill:#2f2f2f; stroke:none;" d="M40 12L41 13L40 12M43 12L44 13L43 12z"/>
<path style="fill:#a0a0a0; stroke:none;" d="M4 13L5 14L4 13z"/>
<path style="fill:#606060; stroke:none;" d="M7 13L8 14L7 13z"/>
<path style="fill:#a0a0a0; stroke:none;" d="M14 13L15 14L14 13z"/>
<path style="fill:#2f2f2f; stroke:none;" d="M16 13L17 14L16 13M33 13L34 14L33 13z"/>
<path style="fill:#a0a0a0; stroke:none;" d="M35 13L36 14L35 13z"/>
<path style="fill:#606060; stroke:none;" d="M42 13L43 14L42 13z"/>
<path style="fill:#2f2f2f; stroke:none;" d="M44 13L45 14L44 13z"/>
<path style="fill:#606060; stroke:none;" d="M4 14L5 15L4 14z"/>
<path style="fill:#a0a0a0; stroke:none;" d="M6 14L7 15L6 14z"/>
<path style="fill:#2f2f2f; stroke:none;" d="M15 14L16 15L15 14z"/>
<path style="fill:#a0a0a0; stroke:none;" d="M17 14L18 15L17 14M32 14L33 15L32 14z"/>
<path style="fill:#2f2f2f; stroke:none;" d="M34 14L35 15L34 14z"/>
<path style="fill:#606060; stroke:none;" d="M43 14L44 15L43 14M45 14L46 15L45 14z"/>
<path style="fill:#a0a0a0; stroke:none;" d="M15 15L16 16L15 15M18 15L19 16L18 15M34 15L35 16L34 15M43 15L44 16L43 15z"/>
<path style="fill:#2f2f2f; stroke:none;" d="M45 15L45 18L46 18L45 15z"/>
<path style="fill:#606060; stroke:none;" d="M16 16L17 17L16 16z"/>
<path style="fill:#2f2f2f; stroke:none;" d="M18 16L19 17L18 16z"/>
<path style="fill:#a0a0a0; stroke:none;" d="M30 16L29 18L30 16z"/>
<path style="fill:#2f2f2f; stroke:none;" d="M31 16L32 17L31 16z"/>
<path style="fill:#606060; stroke:none;" d="M33 16L32 18L33 16M17 17L18 18L17 17z"/>
<path style="fill:#2f2f2f; stroke:none;" d="M19 17L20 18L19 17z"/>
<path style="fill:#a0a0a0; stroke:none;" d="M20 17L21 18L20 17z"/>
<path style="fill:#2f2f2f; stroke:none;" d="M30 17L31 18L30 17z"/>
<path style="fill:#a0a0a0; stroke:none;" d="M33 17L34 18L33 17M43.3333 17.6667L43.6667 18.3333L43.3333 17.6667z"/>
<path style="fill:#2f2f2f; stroke:none;" d="M4 18L5 19L4 18z"/>
<path style="fill:#a0a0a0; stroke:none;" d="M6.33333 18.6667L6.66667 19.3333L6.33333 18.6667z"/>
<path style="fill:#606060; stroke:none;" d="M18 18L19 19L18 18z"/>
<path style="fill:#2f2f2f; stroke:none;" d="M21 18L22 19L21 18z"/>
<path style="fill:#a0a0a0; stroke:none;" d="M22.6667 18.3333L23.3333 18.6667L22.6667 18.3333M26.6667 18.3333L27.3333 18.6667L26.6667 18.3333z"/>
<path style="fill:#606060; stroke:none;" d="M28 18L29 19L28 18M31 18L32 19L31 18M45.3333 18.6667L45.6667 19.3333L45.3333 18.6667M4.33333 19.6667L4.66667 20.3333L4.33333 19.6667z"/>
<path style="fill:#a0a0a0; stroke:none;" d="M19 19L20 20L19 19z"/>
<path style="fill:#2f2f2f; stroke:none;" d="M20 19L21 20L20 19M29 19L30 20L29 19z"/>
<path style="fill:#a0a0a0; stroke:none;" d="M30 19L31 20L30 19z"/>
<path style="fill:#606060; stroke:none;" d="M43.3333 19.6667L43.6667 20.3333L43.3333 19.6667M6.33333 20.6667L6.66667 21.3333L6.33333 20.6667z"/>
<path style="fill:#a0a0a0; stroke:none;" d="M21 20L22 21L21 20z"/>
<path style="fill:#606060; stroke:none;" d="M22 20L23 21L22 20z"/>
<path style="fill:#2f2f2f; stroke:none;" d="M26 20L27 21L26 20z"/>
<path style="fill:#606060; stroke:none;" d="M27 20L28 21L27 20z"/>
<path style="fill:#a0a0a0; stroke:none;" d="M28 20L29 21L28 20M45.3333 20.6667L45.6667 21.3333L45.3333 20.6667M4.33333 21.6667L4.66667 22.3333L4.33333 21.6667z"/>
<path style="fill:#606060; stroke:none;" d="M23 21L24 22L23 21M26 21L27 22L26 21z"/>
<path style="fill:#2f2f2f; stroke:none;" d="M43 21L44 22L43 21M6 22L7 23L6 22z"/>
<path style="fill:#606060; stroke:none;" d="M22 22L23 23L22 22M27 22L28 23L27 22M21 23L22 24L21 23z"/>
<path style="fill:#fdfdfd; stroke:none;" d="M24 23L23 24L24 27L26 27L27 24L24 23z"/>
<path style="fill:#a0a0a0; stroke:none;" d="M25 23L26 24L25 23z"/>
<path style="fill:#2f2f2f; stroke:none;" d="M26 23L27 24L26 23z"/>
<path style="fill:#606060; stroke:none;" d="M28 23L29 24L28 23z"/>
<path style="fill:#2f2f2f; stroke:none;" d="M44 23L45 24L44 23M5 24L6 25L5 24z"/>
<path style="fill:#a0a0a0; stroke:none;" d="M7.33333 24.6667L7.66667 25.3333L7.33333 24.6667M20.3333 24.6667L20.6667 25.3333L20.3333 24.6667z"/>
<path style="fill:#2f2f2f; stroke:none;" d="M27 24L28 25L27 24z"/>
<path style="fill:#a0a0a0; stroke:none;" d="M29.3333 24.6667L29.6667 25.3333L29.3333 24.6667M42 24L43 25L42 24z"/>
<path style="fill:#606060; stroke:none;" d="M44 24L45 25L44 24M5 25L6 26L5 25z"/>
<path style="fill:#a0a0a0; stroke:none;" d="M23 25L24 26L23 25M26 25L27 26L26 25z"/>
<path style="fill:#606060; stroke:none;" d="M42 25L43 26L42 25z"/>
<path style="fill:#a0a0a0; stroke:none;" d="M44.3333 25.6667L44.6667 26.3333L44.3333 25.6667M5 26L6 27L5 26z"/>
<path style="fill:#606060; stroke:none;" d="M7 26L8 27L7 26M21 26L22 27L21 26M23 26L24 27L23 26M26 26L27 27L26 26M28 26L29 27L28 26z"/>
<path style="fill:#2f2f2f; stroke:none;" d="M42 26L43 27L42 26M7 27L8 28L7 27z"/>
<path style="fill:#a0a0a0; stroke:none;" d="M21 27L23 29L21 27z"/>
<path style="fill:#2f2f2f; stroke:none;" d="M22 27L23 28L22 27z"/>
<path style="fill:#a0a0a0; stroke:none;" d="M24.6667 27.3333L25.3333 27.6667L24.6667 27.3333z"/>
<path style="fill:#2f2f2f; stroke:none;" d="M27 27L28 28L27 27M43 27L44 28L43 27M6 28L7 29L6 28z"/>
<path style="fill:#a0a0a0; stroke:none;" d="M8.33333 28.6667L8.66667 29.3333L8.33333 28.6667z"/>
<path style="fill:#2f2f2f; stroke:none;" d="M24 28L25 29L24 28z"/>
<path style="fill:#a0a0a0; stroke:none;" d="M27 28L28 29L27 28M41 28L42 29L41 28z"/>
<path style="fill:#606060; stroke:none;" d="M43 28L44 29L43 28M6 29L7 30L6 29M23 29L24 30L23 29M26 29L27 30L26 29z"/>
<path style="fill:#2f2f2f; stroke:none;" d="M41 29L42 30L41 29z"/>
<path style="fill:#a0a0a0; stroke:none;" d="M43 29L44 30L43 29M6 30L7 31L6 30z"/>
<path style="fill:#2f2f2f; stroke:none;" d="M8 30L9 31L8 30M25 30L26 31L25 30z"/>
<path style="fill:#a0a0a0; stroke:none;" d="M26 30L27 31L26 30z"/>
<path style="fill:#2f2f2f; stroke:none;" d="M42.3333 30.6667L42.6667 31.3333L42.3333 30.6667z"/>
<path style="fill:#a0a0a0; stroke:none;" d="M25 31L26 32L25 31M40 31L41 32L40 31z"/>
<path style="fill:#606060; stroke:none;" d="M7 32L8 33L7 32M9.33333 32.6667L9.66667 33.3333L9.33333 32.6667M40 32L41 33L40 32z"/>
<path style="fill:#a0a0a0; stroke:none;" d="M42.3333 32.6667L42.6667 33.3333L42.3333 32.6667M7 33L8 34L7 33M10 34L11 35L10 34M39 34L40 35L39 34z"/>
<path style="fill:#606060; stroke:none;" d="M41 34L42 35L41 34M8 35L9 36L8 35M10 35L11 36L10 35z"/>
<path style="fill:#2f2f2f; stroke:none;" d="M39 35L40 36L39 35z"/>
<path style="fill:#a0a0a0; stroke:none;" d="M41 35L42 36L41 35M8 36L9 37L8 36z"/>
<path style="fill:#2f2f2f; stroke:none;" d="M10 36L11 37L10 36z"/>
<path style="fill:#a0a0a0; stroke:none;" d="M38 36L39 37L38 36z"/>
<path style="fill:#2f2f2f; stroke:none;" d="M9 37L10 38L9 37z"/>
<path style="fill:#a0a0a0; stroke:none;" d="M11 37L12 38L11 37z"/>
<path style="fill:#606060; stroke:none;" d="M38 37L39 38L38 37M40 37L41 38L40 37z"/>
<path style="fill:#a0a0a0; stroke:none;" d="M9 38L10 39L9 38z"/>
<path style="fill:#2f2f2f; stroke:none;" d="M11 38L12 39L11 38z"/>
<path style="fill:#a0a0a0; stroke:none;" d="M37.3333 38.6667L37.6667 39.3333L37.3333 38.6667z"/>
<path style="fill:#2f2f2f; stroke:none;" d="M38 38L39 39L38 38z"/>
<path style="fill:#a0a0a0; stroke:none;" d="M40 38L41 39L40 38z"/>
<path style="fill:#2f2f2f; stroke:none;" d="M10 39L11 40L10 39z"/>
<path style="fill:#a0a0a0; stroke:none;" d="M12 39L13 40L12 39z"/>
<path style="fill:#2f2f2f; stroke:none;" d="M39 39L40 40L39 39z"/>
<path style="fill:#a0a0a0; stroke:none;" d="M10 40L11 41L10 40z"/>
<path style="fill:#606060; stroke:none;" d="M12 40L13 41L12 40z"/>
<path style="fill:#2f2f2f; stroke:none;" d="M37 40L38 41L37 40z"/>
<path style="fill:#a0a0a0; stroke:none;" d="M39 40L40 41L39 40z"/>
<path style="fill:#2f2f2f; stroke:none;" d="M11 41L12 42L11 41z"/>
<path style="fill:#a0a0a0; stroke:none;" d="M13 41L14 42L13 41M36 41L37 42L36 41z"/>
<path style="fill:#2f2f2f; stroke:none;" d="M38 41L39 42L38 41z"/>
<path style="fill:#606060; stroke:none;" d="M11 42L12 43L11 42M13 42L14 43L13 42z"/>
<path style="fill:#2f2f2f; stroke:none;" d="M36 42L37 43L36 42z"/>
<path style="fill:#a0a0a0; stroke:none;" d="M38 42L39 43L38 42z"/>
<path style="fill:#2f2f2f; stroke:none;" d="M12 43L13 44L12 43z"/>
<path style="fill:#a0a0a0; stroke:none;" d="M14 43L15 44L14 43M35 43L36 44L35 43z"/>
<path style="fill:#2f2f2f; stroke:none;" d="M37 43L38 44L37 43z"/>
<path style="fill:#606060; stroke:none;" d="M12 44L13 45L12 44z"/>
<path style="fill:#a0a0a0; stroke:none;" d="M37 44L38 45L37 44z"/>
<path style="fill:#2f2f2f; stroke:none;" d="M13 45L14 46L13 45z"/>
<path style="fill:#606060; stroke:none;" d="M36 45L37 46L36 45z"/>
</svg>
